<svg width="512" height="512" viewBox="0 0 512 512" fill="none" xmlns="http://www.w3.org/2000/svg">
<circle cx="256" cy="256" r="256" fill="white"/>
<g clip-path="url(#clip0)">
<path d="M292.92 200.162V270.634C292.92 271.453 293.246 272.238 293.825 272.817C294.404 273.396 295.189 273.722 296.008 273.722H363.639C364.458 273.722 365.243 273.396 365.822 272.817C366.401 272.238 366.727 271.453 366.727 270.634V200.162C366.727 198.524 366.076 196.954 364.918 195.796C363.76 194.638 362.19 193.987 360.552 193.987H299.095C297.457 193.987 295.887 194.638 294.729 195.796C293.571 196.954 292.92 198.524 292.92 200.162V200.162ZM292.92 356.506V426.978C292.92 428.616 293.571 430.187 294.729 431.345C295.887 432.503 297.457 433.153 299.095 433.153H360.552C362.19 433.153 363.76 432.503 364.918 431.345C366.076 430.187 366.727 428.616 366.727 426.978V356.506C366.727 355.687 366.401 354.902 365.822 354.323C365.243 353.744 364.458 353.419 363.639 353.419H296.008C295.189 353.419 294.404 353.744 293.825 354.323C293.246 354.902 292.92 355.687 292.92 356.506V356.506Z" fill="#102A43"/>
<path d="M366.767 109.907C366.767 89.5238 350.243 73 329.86 73C309.477 73 292.953 89.5238 292.953 109.907C292.953 130.29 309.477 146.814 329.86 146.814C350.243 146.814 366.767 130.29 366.767 109.907Z" fill="#102A43"/>
<path d="M151.475 433.153H212.931C213.742 433.153 214.545 432.994 215.294 432.683C216.043 432.373 216.724 431.918 217.298 431.345C217.871 430.771 218.326 430.091 218.636 429.342C218.946 428.592 219.106 427.789 219.106 426.978V356.506C219.106 355.687 218.781 354.902 218.202 354.323C217.623 353.744 216.837 353.419 216.019 353.419H148.387C147.568 353.419 146.783 353.744 146.204 354.323C145.625 354.902 145.3 355.687 145.3 356.506V426.978C145.3 427.789 145.459 428.592 145.77 429.342C146.08 430.091 146.535 430.771 147.108 431.345C147.682 431.918 148.362 432.373 149.112 432.683C149.861 432.994 150.664 433.153 151.475 433.153ZM145.3 200.162V270.634C145.3 271.453 145.625 272.238 146.204 272.817C146.783 273.396 147.568 273.722 148.387 273.722H216.019C216.837 273.722 217.623 273.396 218.202 272.817C218.781 272.238 219.106 271.453 219.106 270.634V200.162C219.106 198.524 218.456 196.954 217.298 195.796C216.14 194.638 214.569 193.987 212.931 193.987H151.475C149.837 193.987 148.266 194.638 147.108 195.796C145.95 196.954 145.3 198.524 145.3 200.162V200.162Z" fill="#102A43"/>
<path d="M219.106 109.907C219.106 89.5238 202.582 73 182.199 73C161.816 73 145.292 89.5238 145.292 109.907C145.292 130.29 161.816 146.814 182.199 146.814C202.582 146.814 219.106 130.29 219.106 109.907Z" fill="#102A43"/>
<path d="M292.916 273.708H219.102V353.428H292.916V273.708Z" fill="#102A43"/>
</g>
<defs>
<clipPath id="clip0">
<rect width="360" height="360" fill="white" transform="translate(76 73)"/>
</clipPath>
</defs>
</svg>