<svg width="512" height="512" viewBox="0 0 512 512" fill="none" xmlns="http://www.w3.org/2000/svg">
<g clip-path="url(#clip0)">
<path d="M305.227 185.549V279.512C305.227 280.604 305.661 281.651 306.433 282.423C307.205 283.195 308.252 283.629 309.344 283.629H399.519C400.611 283.629 401.658 283.195 402.43 282.423C403.202 281.651 403.636 280.604 403.636 279.512V185.549C403.636 183.366 402.768 181.272 401.224 179.728C399.68 178.184 397.586 177.316 395.403 177.316H313.46C311.277 177.316 309.183 178.184 307.639 179.728C306.095 181.272 305.227 183.366 305.227 185.549V185.549ZM305.227 394.008V487.971C305.227 490.155 306.095 492.249 307.639 493.793C309.183 495.337 311.277 496.205 313.46 496.205H395.403C397.586 496.205 399.68 495.337 401.224 493.793C402.768 492.249 403.636 490.155 403.636 487.971V394.008C403.636 392.917 403.202 391.87 402.43 391.098C401.658 390.326 400.611 389.892 399.519 389.892H309.344C308.252 389.892 307.205 390.326 306.433 391.098C305.661 391.87 305.227 392.917 305.227 394.008V394.008Z" fill="white"/>
<path d="M403.689 65.2093C403.689 38.0317 381.657 16 354.48 16C327.302 16 305.271 38.0317 305.271 65.2093C305.271 92.3868 327.302 114.419 354.48 114.419C381.657 114.419 403.689 92.3868 403.689 65.2093Z" fill="white"/>
<path d="M116.633 496.205H198.575C199.656 496.205 200.727 495.991 201.726 495.578C202.725 495.164 203.632 494.558 204.397 493.793C205.161 493.029 205.768 492.121 206.182 491.122C206.595 490.123 206.808 489.053 206.808 487.971V394.008C206.808 392.917 206.374 391.87 205.602 391.098C204.83 390.326 203.783 389.892 202.692 389.892H112.516C111.425 389.892 110.377 390.326 109.605 391.098C108.833 391.87 108.4 392.917 108.4 394.008V487.971C108.4 489.053 108.613 490.123 109.027 491.122C109.44 492.121 110.047 493.029 110.811 493.793C111.576 494.558 112.483 495.164 113.482 495.578C114.481 495.991 115.552 496.205 116.633 496.205ZM108.4 185.549V279.512C108.4 280.604 108.833 281.651 109.605 282.423C110.377 283.195 111.425 283.629 112.516 283.629H202.692C203.783 283.629 204.83 283.195 205.602 282.423C206.374 281.651 206.808 280.604 206.808 279.512V185.549C206.808 183.366 205.941 181.272 204.397 179.728C202.853 178.184 200.759 177.316 198.575 177.316H116.633C114.449 177.316 112.355 178.184 110.811 179.728C109.267 181.272 108.4 183.366 108.4 185.549V185.549Z" fill="white"/>
<path d="M206.807 65.2093C206.807 38.0317 184.776 16 157.598 16C130.421 16 108.389 38.0317 108.389 65.2093C108.389 92.3868 130.421 114.419 157.598 114.419C184.776 114.419 206.807 92.3868 206.807 65.2093Z" fill="white"/>
<path d="M305.221 283.611H206.803V389.904H305.221V283.611Z" fill="white"/>
</g>
<defs>
<clipPath id="clip0">
<rect width="480" height="480" fill="white" transform="translate(16 16)"/>
</clipPath>
</defs>
</svg>
